<svg width="30" height="30" viewBox="0 0 30 30" fill="none" xmlns="http://www.w3.org/2000/svg">
<rect width="30" height="30" rx="15" fill="#FFBF00"/>
<path d="M17.9753 20.544C17.9753 20.928 17.8733 21.234 17.6693 21.462C17.4653 21.69 17.1953 21.804 16.8593 21.804H14.0153C13.6673 21.804 13.3913 21.69 13.1873 21.462C12.9833 21.234 12.8813 20.928 12.8813 20.544V10.896H12.7193C12.3713 10.896 12.0953 10.782 11.8913 10.554C11.6873 10.326 11.5853 10.02 11.5853 9.636V7.836C11.5853 7.248 11.9153 6.804 12.5753 6.504C12.9953 6.3 13.3673 6.138 13.6913 6.018C14.0273 5.886 14.2553 5.82 14.3753 5.82H16.8593C17.1953 5.82 17.4653 5.934 17.6693 6.162C17.8733 6.39 17.9753 6.696 17.9753 7.08V20.544Z" fill="#672607"/>
</svg>
