<svg width="246" height="80" viewBox="0 0 246 80" fill="none" xmlns="http://www.w3.org/2000/svg">
<ellipse cx="370" cy="191" rx="843" ry="409" fill="url(#paint0_linear_122_3)"/>
<ellipse cx="123" cy="40" rx="123" ry="40" fill="#99B21B"/>
<ellipse cx="124" cy="39.5" rx="103" ry="31.5" fill="url(#paint1_linear_122_3)"/>
<mask id="mask0_122_3" style="mask-type:alpha" maskUnits="userSpaceOnUse" x="21" y="8" width="206" height="63">
<ellipse cx="124" cy="39.5" rx="103" ry="31.5" fill="url(#paint2_linear_122_3)"/>
</mask>
<g mask="url(#mask0_122_3)">
<path d="M92.8496 104C82.0496 44.8 63.6829 13 55.8496 4.5H110.85C119.25 20.5 119.683 77.5 118.85 104H92.8496Z" fill="#8D411B"/>
<path d="M49.956 84.6066C15.261 51.124 -13.8485 39.9751 -24.0664 38.5859L21.7739 8.6611C35.7192 14.7283 60.8191 52.3885 71.626 70.4603L49.956 84.6066Z" fill="#8D411B"/>
<path d="M205.766 84.6066C240.461 51.124 269.571 39.9751 279.789 38.5859L233.948 8.6611C220.003 14.7283 194.903 52.3885 184.096 70.4603L205.766 84.6066Z" fill="#8D411B"/>
<path d="M162.146 104C172.946 44.8 191.312 13 199.146 4.5H144.146C135.746 20.5 135.312 77.5 136.146 104H162.146Z" fill="#8D411B"/>
<g opacity="0.4">
<ellipse cx="123.85" cy="59" rx="95" ry="29" fill="url(#paint3_linear_122_3)"/>
<ellipse cx="123.85" cy="59" rx="95" ry="29" fill="black" fill-opacity="0.2"/>
</g>
<g opacity="0.4">
<ellipse cx="123.85" cy="70" rx="59" ry="18" fill="url(#paint4_linear_122_3)"/>
<ellipse cx="123.85" cy="70" rx="59" ry="18" fill="black" fill-opacity="0.4"/>
</g>
</g>
<defs>
<linearGradient id="paint0_linear_122_3" x1="370" y1="-218" x2="370" y2="600" gradientUnits="userSpaceOnUse">
<stop stop-color="#BBC822"/>
<stop offset="1" stop-color="#82B420"/>
</linearGradient>
<linearGradient id="paint1_linear_122_3" x1="124" y1="8" x2="124" y2="71" gradientUnits="userSpaceOnUse">
<stop stop-color="#7B3615"/>
<stop offset="1" stop-color="#572208"/>
</linearGradient>
<linearGradient id="paint2_linear_122_3" x1="124" y1="8" x2="124" y2="71" gradientUnits="userSpaceOnUse">
<stop stop-color="#7B3615"/>
<stop offset="1" stop-color="#572208"/>
</linearGradient>
<linearGradient id="paint3_linear_122_3" x1="123.85" y1="30" x2="123.85" y2="88" gradientUnits="userSpaceOnUse">
<stop stop-color="#7B3615"/>
<stop offset="1" stop-color="#572208"/>
</linearGradient>
<linearGradient id="paint4_linear_122_3" x1="123.85" y1="52" x2="123.85" y2="88" gradientUnits="userSpaceOnUse">
<stop stop-color="#7B3615"/>
<stop offset="1" stop-color="#572208"/>
</linearGradient>
</defs>
</svg>
