<?xml version="1.0" encoding="UTF-8"?>
<svg id="_레이어_1" xmlns="http://www.w3.org/2000/svg" version="1.1" viewBox="0 0 198 36.1">
  <!-- Generator: Adobe Illustrator 29.1.0, SVG Export Plug-In . SVG Version: 2.1.0 Build 142)  -->
  <defs>
    <style>
      .st0 {
        fill: none;
      }

      .st1 {
        fill: #aa562c;
        fill-rule: evenodd;
      }

      .st2 {
        fill: #cb825d;
      }

      .st3 {
        fill: #97471f;
      }
    </style>
  </defs>
  <path class="st2" d="M27.6,35.2c6.4-.8,4.7-4.7,3.1-6.5-1.2-1-3.3-.4-4.2,0-.4-3-5.3-4-7.8-4.2-10.6-.4-14.9,8.3-14,10.2.9,1.9,14.9,1.5,22.8.4h.1Z"/>
  <g>
    <path class="st0" d="M23.8,7.3c3.8,0,12.5,1.6,16.5,6.2,2.9,3.3,7.5,4,12.5,4.8,3.7.6,7.7,1.2,11.4,3,6.9,3.3,16.6,1.9,20.6.8h0c2.8-1.2,10-3.1,16.9-.8,3.6,1.2,7.4-1.7,11.8-5.1,6.2-4.8,13.8-10.6,24-7.2,15.8,5.2,48.4-1,52.2-8.9H14.7c-2.3,3.6.3,6.4,9.1,7.3h0Z"/>
    <path class="st3" d="M189.8,0c-3.8,7.9-36.4,14.1-52.2,8.9-10.2-3.4-17.8,2.4-24,7.2-4.4,3.4-8.2,6.3-11.8,5.1-6.9-2.3-14.1-.4-16.9.8h0c-4,1.1-13.7,2.4-20.6-.8-3.7-1.8-7.7-2.4-11.4-3-5-.8-9.6-1.5-12.5-4.8-4-4.6-12.7-6-16.5-6.2C15,6.4,12.4,3.6,14.7,0H0C0,5.2,3.6,7.9,7.8,11.1c2.5,1.9,5.3,4,7.5,6.9,4.9,6.2,10.3,6.3,16.6,6.4,4.4,0,9.2.1,14.6,2.3,21.1,8.4,32.5,8.6,50.1,8.9,2.2,0,4.5,0,6.9,0,14,.4,18.7-1.9,24.3-4.7,3.1-1.5,6.5-3.2,12-4.7,9.9-2.7,31.1-4.1,31.2-4.1,0,0,18.1-1.3,23.4-9.5,3-4.5,3.7-7.4,3.7-12.6h-8.3Z"/>
  </g>
  <path class="st1" d="M166.1,23.4c1.3,1.5,1.3,3.8-1.5,5.2-2.7,1.4-6.5.6-9.9.7-2.7,0-5.6.5-7.5-.3-2.2-1-3.3-2.5-2.6-4.2.8-2,2.7-4.5,6.5-5.2,3.7-.7,4.8,1.8,7.7,2.6,2.3.6,6.1,0,7.1,1.1h.2Z"/>
</svg>