<?xml version="1.0" encoding="UTF-8"?>
<svg id="_레이어_1" xmlns="http://www.w3.org/2000/svg" xmlns:xlink="http://www.w3.org/1999/xlink" version="1.1" viewBox="0 0 198 65">
  <!-- Generator: Adobe Illustrator 29.1.0, SVG Export Plug-In . SVG Version: 2.1.0 Build 142)  -->
  <defs>
    <style>
      .st0 {
        fill: none;
      }

      .st1 {
        fill: url(#_무제_그라디언트);
      }

      .st2 {
        fill: url(#_무제_그라디언트3);
      }

      .st3 {
        fill: url(#_무제_그라디언트2);
      }

      .st4 {
        fill: url(#_무제_그라디언트1);
      }

      .st5 {
        fill: #97471f;
      }
    </style>
    <linearGradient id="_무제_그라디언트" data-name="무제 그라디언트" x1="99" y1="914" x2="99" y2="963" gradientTransform="translate(0 -910)" gradientUnits="userSpaceOnUse">
      <stop offset="0" stop-color="#7b3615"/>
      <stop offset="1" stop-color="#572208"/>
    </linearGradient>
    <linearGradient id="_무제_그라디언트1" data-name="무제 그라디언트" x1="102.4" y1="914" x2="102.4" y2="963" xlink:href="#_무제_그라디언트"/>
    <linearGradient id="_무제_그라디언트2" data-name="무제 그라디언트" x1="14.4" y1="914" x2="14.4" y2="963" xlink:href="#_무제_그라디언트"/>
    <linearGradient id="_무제_그라디언트3" data-name="무제 그라디언트" x1="101.8" y1="914" x2="101.8" y2="963" xlink:href="#_무제_그라디언트"/>
  </defs>
  <path class="st0" d="M190,26.3c-2.2-6.1-25.1-16.9-45.3-16.9-40.1-4.9-39.2-4.6-84.9-2.1-9.6,0-18.5,7-25,9.5-10.3,3.9-17.2,8.1-19.8,11.6h175c.2-.7.3-1.4,0-2.2h0Z"/>
  <path class="st1" d="M13.9,31.2c0-.7.2-1.6.8-2.4h.2c0,0,0-.1.1-.2h174.9c0,0,0,.1,0,.2h0s4.1,0,4.1,0c0-.1,0-.2,0-.3,0-13.5-42.5-24.5-95-24.5S4,15,4,28.5s0,0,0,.1h10.6c-.6.9-.8,1.8-.8,2.6Z"/>
  <path class="st4" d="M189.8,28.7h0s0,0,0,0H15c0,0,0,.1-.1.2h174.8s0,0,0,0Z"/>
  <path class="st3" d="M14.9,28.8h-.2c-.5.9-.8,1.7-.8,2.4,0,.1,0,.3,0,.4,0-.9.2-1.8.9-2.8Z"/>
  <path class="st2" d="M13.9,31.6c.5,2.1,3.6,3.7,9.8,4.3,3.8.2,12.5,1.6,16.5,6.2,2.9,3.3,7.5,4,12.5,4.8,3.7.6,7.7,1.2,11.4,3,6.9,3.2,16.6,1.9,20.6.8h.1c2.8-1.2,10-3.1,16.9-.8s7.4-1.7,11.8-5.1c6.2-4.8,13.8-10.6,24-7.2,15.7,5.2,48.1-.9,52.1-8.8H14.9c-.7,1-1,2-.9,2.8Z"/>
  <path class="st5" d="M75.6,52.2c-2.1-.1-4.3-.3-6.3-.5,2.1.4,4.3.5,6.3.5Z"/>
  <path class="st5" d="M84.9,51c2.8-1.2,10-3.1,16.9-.8s7.4-1.7,11.8-5.1c6.2-4.8,13.8-10.6,24-7.2,15.9,5.3,49-1.1,52.2-9.1h0s0,0,0,0h0c-3.8,7.9-36.4,14.1-52.2,8.9-10.2-3.4-17.8,2.4-24,7.2-4.4,3.4-8.2,6.3-11.8,5.1-6.9-2.3-14.1-.4-16.9.8h0c-4,1.1-13.7,2.5-20.6-.8-3.7-1.8-7.7-2.4-11.4-3-5-.8-9.6-1.5-12.5-4.8-4-4.6-12.7-6.1-16.5-6.2h0c-6-.5-9.1-2-9.8-4,.5,2.1,3.6,3.7,9.8,4.3h0c3.8,0,12.5,1.5,16.5,6.1,2.9,3.3,7.5,4,12.5,4.8,3.7.6,7.7,1.2,11.4,3,1.6.8,3.3,1.3,5.1,1.6,2.1.2,4.2.3,6.3.5,3.8,0,7.2-.7,9.2-1.2h.1Z"/>
  <path class="st5" d="M13.9,31.2c0,.3,0,.5.1.7,0-.1,0-.2,0-.3,0-.1,0-.3,0-.4Z"/>
  <path class="st5" d="M23.8,36.1h0c3.8,0,12.5,1.5,16.5,6.1,2.9,3.3,7.5,4,12.5,4.8,3.7.6,7.7,1.2,11.4,3,6.9,3.3,16.6,1.9,20.6.8h0c2.8-1.2,10-3.1,16.9-.8,3.6,1.2,7.4-1.7,11.8-5.1,6.2-4.8,13.8-10.6,24-7.2,15.8,5.2,48.4-1,52.2-8.9h0c-4,7.9-36.4,14-52.1,8.8-10.2-3.4-17.8,2.4-24,7.2-4.4,3.4-8.2,6.3-11.8,5.1-6.9-2.3-14.1-.4-16.9.8h-.1c-4,1.1-13.7,2.4-20.6-.8-3.7-1.8-7.7-2.4-11.4-3-5-.8-9.6-1.5-12.5-4.8-4-4.6-12.7-6-16.5-6.2-6.2-.6-9.3-2.1-9.8-4.3,0,.1,0,.2,0,.3.6,2,3.8,3.5,9.8,4.1Z"/>
  <path class="st5" d="M34.8,16.9c6.5-2.5,15.4-9.5,25-9.5,45.8-2.6,44.9-2.8,84.9,2.1,20.2,0,43.1,10.7,45.3,16.9.3.7.2,1.5,0,2.2h8c-.1-4.4-2.2-8-8-14.1-11.5-12.1-49.5-9.7-52.8-9.5h-.5C118.1-3.6,60.2,1.6,59.8,1.6h0c-.3,0-7.2.4-8.2,1.2-.9.7-2.3,1.1-2.7,1.2h-.2c-.6.2-2,.8-4.5.8s-1,0-1.6,0c-3.8-.3-11.2-.8-18.8,3.8-1.3.8-2.9,1.7-4.7,2.6C11.5,15.4,1,21.1.1,27.1c0,.5-.1.9-.1,1.4h15c2.6-3.5,9.5-7.7,19.8-11.6Z"/>
</svg>