<svg width="856" height="949" viewBox="0 0 856 949" fill="none" xmlns="http://www.w3.org/2000/svg">
<rect x="-101" width="1058" height="301" fill="url(#paint0_linear_110_9788)"/>
<path d="M-10 445V111.953L30.6358 133.889C95 232.604 76.5 162.972 133 161.826C219.501 160.071 216.853 200.041 200.034 247.57C222.5 216.09 266 212.471 275.5 232.604C330.5 168.482 355.317 237.333 351.713 267.313C374.78 262.048 397.366 272.432 405.776 278.281C403.974 258.538 419.239 200.324 471.5 198.13C513.309 196.376 541.101 254.928 540.5 283.446C545.5 267.313 554.448 265.509 564.059 267.703L563.813 266.508C561.078 253.213 559.495 245.518 562.257 232.604C571.076 191.368 630.737 210.253 652.362 229.996C655.976 208.002 676.121 201.535 688.549 206.87C684.45 188.708 685.16 165 697.415 149.327C727.361 111.026 777.909 157.093 794.728 187.804C796.17 124.627 846.177 110.295 866 111.026V445H-10Z" fill="url(#paint1_linear_110_9788)"/>
<ellipse cx="411" cy="756" rx="843" ry="409" fill="url(#paint2_linear_110_9788)"/>
<defs>
<linearGradient id="paint0_linear_110_9788" x1="428" y1="-245.129" x2="428" y2="232.545" gradientUnits="userSpaceOnUse">
<stop stop-color="#71E3FF"/>
<stop offset="1" stop-color="#CFF7F9"/>
</linearGradient>
<linearGradient id="paint1_linear_110_9788" x1="428" y1="138.309" x2="428" y2="576.627" gradientUnits="userSpaceOnUse">
<stop stop-color="#2E946D"/>
<stop offset="1" stop-color="#0E2E22"/>
</linearGradient>
<linearGradient id="paint2_linear_110_9788" x1="411" y1="347" x2="411" y2="1165" gradientUnits="userSpaceOnUse">
<stop stop-color="#BBC822"/>
<stop offset="1" stop-color="#82B420"/>
</linearGradient>
</defs>
</svg>
