<svg width="30" height="30" viewBox="0 0 30 30" fill="none" xmlns="http://www.w3.org/2000/svg">
<rect width="30" height="30" rx="15" fill="#D3D1CA"/>
<path d="M20.6728 20.544C20.6728 20.928 20.5708 21.234 20.3668 21.462C20.1628 21.69 19.8868 21.804 19.5388 21.804H10.5928C10.2448 21.804 9.96881 21.69 9.76481 21.462C9.56081 21.234 9.45881 20.928 9.45881 20.544V19.068C9.45881 18.732 9.52481 18.39 9.65681 18.042C9.78881 17.682 9.99281 17.364 10.2688 17.088L15.0568 12.228C15.2728 11.988 15.4528 11.748 15.5968 11.508C15.7408 11.256 15.8128 10.956 15.8128 10.608C15.8128 10.332 15.7888 10.152 15.7408 10.068C15.6928 9.972 15.5728 9.924 15.3808 9.924H14.8408C14.6848 9.936 14.5708 9.984 14.4988 10.068C14.4388 10.14 14.4088 10.308 14.4088 10.572C14.4088 10.956 14.3068 11.262 14.1028 11.49C13.8988 11.718 13.6228 11.832 13.2748 11.832H10.4668C10.1308 11.832 9.85481 11.718 9.63881 11.49C9.43481 11.262 9.33281 10.956 9.33281 10.572V9.582C9.33281 8.31 9.65081 7.35 10.2868 6.702C10.9228 6.054 11.7988 5.73 12.9148 5.73H17.0188C18.1348 5.73 19.0108 6.054 19.6468 6.702C20.2828 7.35 20.6008 8.31 20.6008 9.582V10.932C20.6008 11.388 20.5288 11.796 20.3848 12.156C20.2408 12.504 19.9828 12.876 19.6108 13.272L15.4708 17.448H19.5388C19.8868 17.448 20.1628 17.562 20.3668 17.79C20.5708 18.018 20.6728 18.324 20.6728 18.708V20.544Z" fill="#1D1D1D"/>
</svg>
