<svg width="30" height="30" viewBox="0 0 30 30" fill="none" xmlns="http://www.w3.org/2000/svg">
<rect width="30" height="30" rx="15" fill="#CA780D"/>
<path d="M9.30855 17.376C9.30855 16.992 9.41055 16.686 9.61455 16.458C9.81855 16.23 10.0946 16.116 10.4426 16.116H13.2326C13.5206 16.116 13.7546 16.218 13.9346 16.422C14.1146 16.614 14.2106 16.878 14.2226 17.214C14.2346 17.454 14.2706 17.61 14.3306 17.682C14.3906 17.742 14.4986 17.778 14.6546 17.79H15.1406C15.3326 17.79 15.4526 17.748 15.5006 17.664C15.5486 17.568 15.5726 17.382 15.5726 17.106V16.044C15.5726 15.78 15.5486 15.606 15.5006 15.522C15.4526 15.438 15.3506 15.384 15.1946 15.36H14.6546C14.3066 15.36 14.0306 15.246 13.8266 15.018C13.6226 14.79 13.5206 14.484 13.5206 14.1V13.236C13.5206 12.852 13.6226 12.546 13.8266 12.318C14.0306 12.09 14.3066 11.976 14.6546 11.976H15.1406C15.3326 11.964 15.4526 11.916 15.5006 11.832C15.5486 11.748 15.5726 11.568 15.5726 11.292V10.41C15.5726 10.134 15.5486 9.954 15.5006 9.87C15.4526 9.774 15.3326 9.726 15.1406 9.726H14.6546C14.5226 9.738 14.4266 9.768 14.3666 9.816C14.3066 9.864 14.2646 9.966 14.2406 10.122C14.1326 10.854 13.7966 11.22 13.2326 11.22H10.4426C10.0946 11.22 9.81855 11.106 9.61455 10.878C9.41055 10.65 9.30855 10.344 9.30855 9.96V9.384C9.30855 8.124 9.62655 7.2 10.2626 6.612C10.9106 6.012 11.7866 5.712 12.8906 5.712H17.1026C18.2186 5.712 19.0946 6.036 19.7306 6.684C20.3666 7.332 20.6846 8.292 20.6846 9.564V11.472C20.6846 11.988 20.5946 12.456 20.4146 12.876C20.2346 13.296 19.9646 13.59 19.6046 13.758C19.9646 13.926 20.2346 14.226 20.4146 14.658C20.5946 15.078 20.6846 15.54 20.6846 16.044V17.952C20.6846 19.224 20.3666 20.184 19.7306 20.832C19.0946 21.48 18.2186 21.804 17.1026 21.804H12.8906C11.7866 21.804 10.9106 21.504 10.2626 20.904C9.62655 20.316 9.30855 19.392 9.30855 18.132V17.376Z" fill="#5E3704"/>
</svg>
